<?xml version="1.0" encoding="utf-8"?>
<svg height="24px" viewBox="0 0 24 24" width="24px" fill="#000000" xmlns="http://www.w3.org/2000/svg">
  <path d="M0 0h24v24H0z" fill="none"/>
  <path d="M 22 12 C 22 17.53 17.53 22 12 22 C 6.47 22 2 17.53 2 12 C 2 6.47 6.47 2 12 2 C 17.53 2 22 6.47 22 12 Z M 12.931 19.95 C 13.253 19.917 13.558 19.862 13.846 19.783 L 11.102 17.034 L 10.386 17.75 L 11.65 19.017 C 10.819 18.972 10.018 18.775 9.247 18.425 C 8.477 18.075 7.789 17.617 7.185 17.05 C 6.581 16.483 6.084 15.828 5.697 15.083 C 5.308 14.338 5.081 13.544 5.014 12.7 L 4 12.7 C 4.1 13.734 4.377 14.694 4.832 15.583 C 5.286 16.472 5.874 17.245 6.594 17.9 C 7.315 18.555 8.138 19.07 9.065 19.442 C 9.99 19.814 10.974 20 12.017 20 C 12.305 20 12.61 19.983 12.931 19.95 Z M 15.11 16.517 L 15.11 15.1 L 16.524 15.1 L 16.524 14.1 L 9.938 14.1 L 9.938 7.5 L 8.94 7.5 L 8.94 8.917 L 7.526 8.917 L 7.526 9.917 L 8.94 9.917 L 8.94 14.1 C 8.94 14.389 9.034 14.628 9.222 14.817 C 9.41 15.006 9.65 15.1 9.938 15.1 L 14.112 15.1 L 14.112 16.517 Z M 15.11 13.1 L 15.11 9.917 C 15.11 9.628 15.016 9.389 14.827 9.2 C 14.639 9.011 14.4 8.917 14.112 8.917 L 10.935 8.917 L 10.935 9.917 L 14.112 9.917 L 14.112 13.1 Z M 20 11.3 C 19.911 10.266 19.639 9.306 19.185 8.417 C 18.73 7.528 18.146 6.755 17.43 6.1 C 16.715 5.445 15.892 4.93 14.961 4.558 C 14.029 4.186 13.048 4 12.017 4 C 11.718 4 11.406 4.017 11.086 4.05 C 10.763 4.083 10.458 4.138 10.17 4.217 L 12.914 6.966 L 13.63 6.25 L 12.366 4.983 C 13.198 5.028 13.998 5.225 14.77 5.575 C 15.54 5.925 16.227 6.383 16.832 6.95 C 17.436 7.517 17.932 8.172 18.32 8.917 C 18.708 9.662 18.935 10.456 19.002 11.3 Z" style=""/>
</svg>