<svg xmlns="http://www.w3.org/2000/svg" height="24px" viewBox="0 -960 960 960" width="24px" fill="#000000"><path d="M120-160v-80h110l-16-14q-52-46-73-105t-21-119q0-111 66.5-197.5T360-790v84q-72 26-116 88.5T200-478q0 45 17 87.5t53 78.5l10 10v-98h80v240H120Zm331.5-131.5Q440-303 440-320t11.5-28.5Q463-360 480-360t28.5 11.5Q520-337 520-320t-11.5 28.5Q497-280 480-280t-28.5-11.5ZM440-440v-240h80v240h-80Zm160 270v-84q72-26 116-88.5T760-482q0-45-17-87.5T690-648l-10-10v98h-80v-240h240v80H730l16 14q49 49 71.5 106.5T840-482q0 111-66.5 197.5T600-170Z"/></svg>