<?xml version="1.0" encoding="utf-8"?>
<svg height="24px" viewBox="0 0 24 24" width="24px" fill="#000000" xmlns="http://www.w3.org/2000/svg">
  <path d="M0 0h24v24H0z" fill="none"/>
  <path d="M 22 12 C 22 17.53 17.53 22 12 22 C 6.47 22 2 17.53 2 12 C 2 6.47 6.47 2 12 2 C 17.53 2 22 6.47 22 12 Z M 15.668 17.333 L 14.678 16.343 L 12.675 18.345 L 12.675 14.093 L 11.325 14.093 L 11.325 18.345 L 9.323 16.343 L 8.333 17.333 L 12 21 Z M 7.545 14.565 L 5.655 12.675 L 9.908 12.675 L 9.908 11.325 L 5.655 11.325 L 7.568 9.413 L 6.578 8.423 L 3 12 L 6.555 15.555 Z M 21 12 L 17.445 8.445 L 16.455 9.435 L 18.345 11.325 L 14.115 11.325 L 14.115 12.675 L 18.345 12.675 L 16.455 14.565 L 17.445 15.555 Z M 12.675 9.885 L 12.675 5.655 L 14.565 7.545 L 15.555 6.555 L 12 3 L 8.445 6.555 L 9.435 7.545 L 11.325 5.655 L 11.325 9.885 Z"/>
</svg>